<svg width="6701" height="1439" viewBox="0 0 6701 1439" fill="none" xmlns="http://www.w3.org/2000/svg">
<path fill-rule="evenodd" clip-rule="evenodd" d="M947.448 1020.29C1059.53 1020.29 1119.16 954.045 1116.34 734.489L1415.66 734.489C1422.65 1108.33 1212.93 1334.52 907.211 1327.94C607.051 1321.48 411.531 1072.93 411.531 734.489L718.677 734.489C697.182 902.515 776.911 1020.29 947.448 1020.29Z" fill="#393942"/>
<ellipse cx="930.718" cy="295.426" rx="930.718" ry="295.426" transform="matrix(-0.868566 0.495573 -0.485565 -0.874201 1904.49 516.523)" fill="#393942"/>
<path d="M413.87 801.328L412.643 734.091C734.026 456.467 943.595 293.702 1381.05 243.799C1381.05 243.799 1280.24 277.083 1302.17 277.3C1324.11 277.518 1351.28 277.301 1351.28 277.301C933.596 457.319 830.173 633.44 457.039 827.212C437.514 837.352 414.272 823.327 413.87 801.328Z" fill="white"/>
<path d="M228.241 1087.34C166.203 975.65 436.565 715.112 826.474 492.644C1176.52 248.302 1459.72 204.58 1584.57 240.933C1611.13 248.663 1635.23 266.971 1642.39 293.927C1678.97 431.662 1410.36 698.656 1055.25 901.271C665.341 1123.74 290.279 1199.03 228.241 1087.34Z" fill="white"/>
<path d="M740.323 272.81H432.516V878.779C432.516 950.597 454.497 1025.41 510.461 1092.74C510.461 1092.74 611.811 1066.84 672.472 1047.7C716.923 1033.67 779.969 1008.78 802.153 999.901C806.061 998.336 807.157 993.33 804.45 990.106C779.057 959.865 767.233 922.817 749.388 878.779C730.238 831.515 740.323 272.81 740.323 272.81Z" fill="#1C22BA"/>
<path d="M1122.04 272.81V824.427C1122.04 824.427 1226.36 762.615 1289.75 717.812C1339.18 682.872 1412.83 623.558 1412.83 623.558V272.81H1122.04Z" fill="#1C22BA"/>
<path d="M2135.15 334.256V611.263C2135.15 654.913 2145.44 687.23 2166 708.216C2186.99 729.201 2215.53 739.694 2251.62 739.694C2287.72 739.694 2315.84 729.411 2335.98 708.845C2356.55 687.86 2366.83 655.333 2366.83 611.263V334.256H2410.9V610.634C2410.9 666.455 2396 708.426 2366.2 736.546C2336.82 764.667 2298.42 778.727 2250.99 778.727C2203.57 778.727 2164.95 764.667 2135.15 736.546C2105.77 708.426 2091.08 666.455 2091.08 610.634V334.256H2135.15ZM2552.64 506.126C2563.55 483.042 2580.76 463.946 2604.26 448.836C2628.18 433.307 2656.51 425.542 2689.25 425.542C2720.31 425.542 2748.22 432.887 2772.98 447.577C2798.17 461.847 2817.68 482.413 2831.53 509.274C2845.8 535.716 2852.94 566.564 2852.94 601.82C2852.94 637.075 2845.8 668.134 2831.53 694.995C2817.68 721.856 2798.17 742.632 2772.98 757.322C2748.22 772.012 2720.31 779.356 2689.25 779.356C2656.93 779.356 2628.81 771.802 2604.89 756.692C2580.97 741.163 2563.55 721.856 2552.64 698.772V936.747H2509.2V430.579H2552.64V506.126ZM2808.24 601.82C2808.24 573.28 2802.57 548.727 2791.24 528.161C2780.33 507.176 2765.22 491.227 2745.91 480.314C2726.61 469.402 2704.78 463.946 2680.44 463.946C2656.93 463.946 2635.32 469.612 2615.59 480.944C2596.29 492.276 2580.97 508.435 2569.63 529.42C2558.3 550.406 2552.64 574.749 2552.64 602.449C2552.64 630.15 2558.3 654.493 2569.63 675.479C2580.97 696.464 2596.29 712.623 2615.59 723.955C2635.32 735.287 2656.93 740.953 2680.44 740.953C2704.78 740.953 2726.61 735.497 2745.91 724.585C2765.22 713.252 2780.33 697.094 2791.24 676.108C2802.57 654.703 2808.24 629.94 2808.24 601.82ZM2913.88 602.449C2913.88 566.774 2921.02 535.716 2935.29 509.274C2949.56 482.413 2969.28 461.847 2994.47 447.577C3019.65 432.887 3048.4 425.542 3080.72 425.542C3123.11 425.542 3157.94 436.035 3185.22 457.02C3212.92 478.006 3230.76 506.546 3238.74 542.641H3191.52C3185.64 517.878 3172.84 498.572 3153.12 484.721C3133.81 470.451 3109.68 463.316 3080.72 463.316C3057.63 463.316 3036.86 468.562 3018.39 479.055C2999.92 489.548 2985.23 505.287 2974.32 526.272C2963.83 546.838 2958.58 572.23 2958.58 602.449C2958.58 632.668 2963.83 658.271 2974.32 679.256C2985.23 700.241 2999.92 715.98 3018.39 726.473C3036.86 736.966 3057.63 742.212 3080.72 742.212C3109.68 742.212 3133.81 735.287 3153.12 721.437C3172.84 707.167 3185.64 687.44 3191.52 662.258H3238.74C3230.76 697.513 3212.92 725.844 3185.22 747.249C3157.52 768.654 3122.69 779.356 3080.72 779.356C3048.4 779.356 3019.65 772.221 2994.47 757.951C2969.28 743.262 2949.56 722.696 2935.29 696.254C2921.02 669.393 2913.88 638.125 2913.88 602.449ZM3483.81 424.283C3509.83 424.283 3533.13 429.739 3553.69 440.652C3574.68 451.564 3591.05 468.353 3602.8 491.017C3614.97 513.261 3621.06 540.542 3621.06 572.86V774.32H3577.62V577.896C3577.62 540.542 3568.17 512.002 3549.29 492.276C3530.82 472.55 3505.43 462.687 3473.11 462.687C3439.95 462.687 3413.51 473.179 3393.79 494.165C3374.06 515.15 3364.2 545.999 3364.2 586.71V774.32H3320.13V308.444H3364.2V489.128C3375.11 468.562 3391.06 452.614 3412.04 441.281C3433.45 429.949 3457.37 424.283 3483.81 424.283ZM3698.38 601.82C3698.38 566.564 3705.3 535.716 3719.15 509.274C3733.42 482.413 3752.94 461.847 3777.7 447.577C3802.88 432.887 3831.21 425.542 3862.69 425.542C3895.43 425.542 3923.55 433.097 3947.05 448.207C3970.98 463.316 3988.18 482.623 3998.68 506.126V430.579H4042.75V774.32H3998.68V698.143C3987.76 721.647 3970.35 741.163 3946.42 756.692C3922.92 771.802 3894.8 779.356 3862.06 779.356C3831 779.356 3802.88 772.012 3777.7 757.322C3752.94 742.632 3733.42 721.856 3719.15 694.995C3705.3 668.134 3698.38 637.075 3698.38 601.82ZM3998.68 602.449C3998.68 574.749 3993.01 550.406 3981.68 529.42C3970.35 508.435 3954.82 492.276 3935.09 480.944C3915.78 469.612 3894.38 463.946 3870.88 463.946C3846.53 463.946 3824.71 469.402 3805.4 480.314C3786.09 491.227 3770.78 507.176 3759.44 528.161C3748.53 548.727 3743.07 573.28 3743.07 601.82C3743.07 629.94 3748.53 654.703 3759.44 676.108C3770.78 697.094 3786.09 713.252 3805.4 724.585C3824.71 735.497 3846.53 740.953 3870.88 740.953C3894.38 740.953 3915.78 735.287 3935.09 723.955C3954.82 712.623 3970.35 696.464 3981.68 675.479C3993.01 654.493 3998.68 630.15 3998.68 602.449ZM4123.21 601.82C4123.21 566.564 4130.13 535.716 4143.98 509.274C4158.25 482.413 4177.77 461.847 4202.53 447.577C4227.71 432.887 4256.05 425.542 4287.52 425.542C4320.26 425.542 4348.38 433.097 4371.88 448.207C4395.81 463.316 4413.02 482.623 4423.51 506.126V430.579H4467.58V774.32H4423.51V698.143C4412.6 721.647 4395.18 741.163 4371.26 756.692C4347.75 771.802 4319.63 779.356 4286.89 779.356C4255.84 779.356 4227.71 772.012 4202.53 757.322C4177.77 742.632 4158.25 721.856 4143.98 694.995C4130.13 668.134 4123.21 637.075 4123.21 601.82ZM4423.51 602.449C4423.51 574.749 4417.84 550.406 4406.51 529.42C4395.18 508.435 4379.65 492.276 4359.92 480.944C4340.62 469.612 4319.21 463.946 4295.71 463.946C4271.36 463.946 4249.54 469.402 4230.23 480.314C4210.93 491.227 4195.61 507.176 4184.28 528.161C4173.36 548.727 4167.91 573.28 4167.91 601.82C4167.91 629.94 4173.36 654.703 4184.28 676.108C4195.61 697.094 4210.93 713.252 4230.23 724.585C4249.54 735.497 4271.36 740.953 4295.71 740.953C4319.21 740.953 4340.62 735.287 4359.92 723.955C4379.65 712.623 4395.18 696.464 4406.51 675.479C4417.84 654.493 4423.51 630.15 4423.51 602.449ZM4612.25 491.646C4621.91 470.241 4636.6 453.663 4656.32 441.911C4676.47 430.159 4701.02 424.283 4729.98 424.283V470.241H4718.02C4686.12 470.241 4660.52 478.845 4641.21 496.053C4621.91 513.261 4612.25 542.011 4612.25 582.303V774.32H4568.19V430.579H4612.25V491.646ZM5128.06 774.32H5083.99L4840.35 404.137V774.32H4796.28V334.256H4840.35L5083.99 703.809V334.256H5128.06V774.32ZM5538.88 584.822C5538.88 599.931 5538.46 611.473 5537.62 619.448H5252.43C5253.69 645.469 5259.98 667.714 5271.31 686.181C5282.65 704.648 5297.54 718.709 5316.01 728.362C5334.48 737.595 5354.63 742.212 5376.45 742.212C5404.99 742.212 5428.91 735.287 5448.22 721.437C5467.95 707.586 5480.96 688.909 5487.25 665.406H5533.84C5525.45 698.982 5507.4 726.473 5479.7 747.878C5452.42 768.864 5418 779.356 5376.45 779.356C5344.13 779.356 5315.17 772.221 5289.57 757.951C5263.97 743.262 5243.82 722.696 5229.13 696.254C5214.86 669.393 5207.73 638.125 5207.73 602.449C5207.73 566.774 5214.86 535.506 5229.13 508.645C5243.4 481.783 5263.34 461.218 5288.94 446.947C5314.54 432.677 5343.71 425.542 5376.45 425.542C5409.19 425.542 5437.73 432.677 5462.07 446.947C5486.83 461.218 5505.72 480.524 5518.73 504.867C5532.16 528.791 5538.88 555.442 5538.88 584.822ZM5494.18 583.563C5494.6 557.96 5489.35 536.135 5478.44 518.088C5467.95 500.041 5453.47 486.4 5435 477.166C5416.53 467.933 5396.39 463.316 5374.56 463.316C5341.82 463.316 5313.91 473.809 5290.83 494.794C5267.75 515.78 5254.94 545.369 5252.43 583.563H5494.18ZM5662.95 506.126C5673.86 483.042 5691.07 463.946 5714.57 448.836C5738.49 433.307 5766.82 425.542 5799.56 425.542C5830.62 425.542 5858.53 432.887 5883.29 447.577C5908.47 461.847 5927.99 482.413 5941.84 509.274C5956.11 535.716 5963.25 566.564 5963.25 601.82C5963.25 637.075 5956.11 668.134 5941.84 694.995C5927.99 721.856 5908.47 742.632 5883.29 757.322C5858.53 772.012 5830.62 779.356 5799.56 779.356C5767.24 779.356 5739.12 771.802 5715.2 756.692C5691.28 741.163 5673.86 721.856 5662.95 698.772V936.747H5619.51V430.579H5662.95V506.126ZM5918.55 601.82C5918.55 573.28 5912.88 548.727 5901.55 528.161C5890.64 507.176 5875.53 491.227 5856.22 480.314C5836.91 469.402 5815.09 463.946 5790.75 463.946C5767.24 463.946 5745.63 469.612 5725.9 480.944C5706.59 492.276 5691.28 508.435 5679.94 529.42C5668.61 550.406 5662.95 574.749 5662.95 602.449C5662.95 630.15 5668.61 654.493 5679.94 675.479C5691.28 696.464 5706.59 712.623 5725.9 723.955C5745.63 735.287 5767.24 740.953 5790.75 740.953C5815.09 740.953 5836.91 735.497 5856.22 724.585C5875.53 713.252 5890.64 697.094 5901.55 676.108C5912.88 654.703 5918.55 629.94 5918.55 601.82ZM6024.19 601.82C6024.19 566.564 6031.12 535.716 6044.97 509.274C6059.24 482.413 6078.75 461.847 6103.52 447.577C6128.7 432.887 6157.03 425.542 6188.51 425.542C6221.24 425.542 6249.36 433.097 6272.87 448.207C6296.79 463.316 6314 482.623 6324.49 506.126V430.579H6368.56V774.32H6324.49V698.143C6313.58 721.647 6296.16 741.163 6272.24 756.692C6248.74 771.802 6220.61 779.356 6187.88 779.356C6156.82 779.356 6128.7 772.012 6103.52 757.322C6078.75 742.632 6059.24 721.856 6044.97 694.995C6031.12 668.134 6024.19 637.075 6024.19 601.82ZM6324.49 602.449C6324.49 574.749 6318.83 550.406 6307.49 529.42C6296.16 508.435 6280.63 492.276 6260.91 480.944C6241.6 469.612 6220.19 463.946 6196.69 463.946C6172.35 463.946 6150.52 469.402 6131.22 480.314C6111.91 491.227 6096.59 507.176 6085.26 528.161C6074.35 548.727 6068.89 573.28 6068.89 601.82C6068.89 629.94 6074.35 654.703 6085.26 676.108C6096.59 697.094 6111.91 713.252 6131.22 724.585C6150.52 735.497 6172.35 740.953 6196.69 740.953C6220.19 740.953 6241.6 735.287 6260.91 723.955C6280.63 712.623 6296.16 696.464 6307.49 675.479C6318.83 654.493 6324.49 630.15 6324.49 602.449ZM6513.24 308.444V774.32H6469.17V308.444H6513.24Z" fill="#393942"/>
<line x1="2252.07" y1="1158.57" x2="2851.65" y2="1158.57" stroke="#393942" stroke-width="20.9854"/>
<path d="M2965.47 1267.56V1071.34H2989.23V1158.72H3093.86V1071.34H3117.62V1267.56H3093.86V1179.8H2989.23V1267.56H2965.47ZM3165.19 1267.56V1071.34H3283.62V1092.42H3188.95V1158.72H3277.48V1179.8H3188.95V1246.49H3285.15V1267.56H3165.19ZM3334.49 1267.56H3309.58L3381.63 1071.34H3406.16L3478.22 1267.56H3453.3L3394.67 1102.38H3393.13L3334.49 1267.56ZM3343.69 1190.91H3444.11V1211.99H3343.69V1190.91ZM3508.78 1267.56V1071.34H3532.54V1246.49H3623.76V1267.56H3508.78ZM3684.31 1071.34V1267.56H3660.55V1071.34H3684.31ZM3887.56 1071.34V1267.56H3864.56L3757.63 1113.5H3755.72V1267.56H3731.95V1071.34H3754.95L3862.26 1225.79H3864.18V1071.34H3887.56ZM4069.24 1132.66C4067.14 1126.21 4064.36 1120.43 4060.91 1115.32C4057.52 1110.14 4053.47 1105.73 4048.74 1102.09C4044.08 1098.45 4038.78 1095.67 4032.83 1093.76C4026.89 1091.84 4020.38 1090.88 4013.29 1090.88C4001.66 1090.88 3991.09 1093.89 3981.57 1099.89C3972.06 1105.89 3964.49 1114.74 3958.87 1126.43C3953.25 1138.12 3950.43 1152.46 3950.43 1169.45C3950.43 1186.44 3953.28 1200.78 3958.96 1212.47C3964.65 1224.16 3972.34 1233.01 3982.05 1239.01C3991.76 1245.02 4002.69 1248.02 4014.82 1248.02C4026.06 1248.02 4035.96 1245.62 4044.52 1240.83C4053.15 1235.98 4059.85 1229.14 4064.65 1220.33C4069.5 1211.45 4071.93 1201.01 4071.93 1189L4079.21 1190.53H4020.19V1169.45H4094.92V1190.53C4094.92 1206.69 4091.47 1220.74 4084.57 1232.69C4077.74 1244.63 4068.29 1253.9 4056.21 1260.47C4044.2 1266.99 4030.41 1270.25 4014.82 1270.25C3997.45 1270.25 3982.18 1266.16 3969.02 1257.98C3955.93 1249.81 3945.71 1238.18 3938.36 1223.11C3931.08 1208.03 3927.44 1190.15 3927.44 1169.45C3927.44 1153.93 3929.52 1139.97 3933.67 1127.58C3937.88 1115.12 3943.82 1104.52 3951.49 1095.77C3959.15 1087.02 3968.22 1080.31 3978.7 1075.65C3989.18 1070.99 4000.71 1068.65 4013.29 1068.65C4023.64 1068.65 4033.28 1070.22 4042.22 1073.35C4051.23 1076.42 4059.25 1080.79 4066.27 1086.48C4073.36 1092.1 4079.27 1098.84 4084 1106.69C4088.73 1114.49 4091.98 1123.14 4093.77 1132.66H4069.24ZM4200.77 1092.42V1071.34H4347.94V1092.42H4286.24V1267.56H4262.48V1092.42H4200.77ZM4384.62 1267.56V1071.34H4408.38V1158.72H4513.01V1071.34H4536.77V1267.56H4513.01V1179.8H4408.38V1267.56H4384.62ZM4584.34 1267.56V1071.34H4702.77V1092.42H4608.1V1158.72H4696.63V1179.8H4608.1V1246.49H4704.3V1267.56H4584.34ZM4977.08 1071.34V1267.56H4954.09L4847.16 1113.5H4845.24V1267.56H4821.48V1071.34H4844.48L4951.79 1225.79H4953.7V1071.34H4977.08ZM5032.68 1267.56H5007.77L5079.82 1071.34H5104.35L5176.4 1267.56H5151.49L5092.85 1102.38H5091.32L5032.68 1267.56ZM5041.88 1190.91H5142.29V1211.99H5041.88V1190.91ZM5173.31 1092.42V1071.34H5320.48V1092.42H5258.78V1267.56H5235.01V1092.42H5173.31ZM5380.92 1071.34V1267.56H5357.15V1071.34H5380.92ZM5594.13 1169.45C5594.13 1190.15 5590.39 1208.03 5582.92 1223.11C5575.44 1238.18 5565.19 1249.81 5552.16 1257.98C5539.13 1266.16 5524.25 1270.25 5507.51 1270.25C5490.77 1270.25 5475.89 1266.16 5462.86 1257.98C5449.83 1249.81 5439.58 1238.18 5432.1 1223.11C5424.63 1208.03 5420.89 1190.15 5420.89 1169.45C5420.89 1148.76 5424.63 1130.87 5432.1 1115.8C5439.58 1100.72 5449.83 1089.09 5462.86 1080.92C5475.89 1072.74 5490.77 1068.65 5507.51 1068.65C5524.25 1068.65 5539.13 1072.74 5552.16 1080.92C5565.19 1089.09 5575.44 1100.72 5582.92 1115.8C5590.39 1130.87 5594.13 1148.76 5594.13 1169.45ZM5571.13 1169.45C5571.13 1152.46 5568.29 1138.12 5562.6 1126.43C5556.98 1114.74 5549.35 1105.89 5539.7 1099.89C5530.12 1093.89 5519.39 1090.88 5507.51 1090.88C5495.63 1090.88 5484.87 1093.89 5475.22 1099.89C5465.64 1105.89 5458.01 1114.74 5452.32 1126.43C5446.7 1138.12 5443.89 1152.46 5443.89 1169.45C5443.89 1186.44 5446.7 1200.78 5452.32 1212.47C5458.01 1224.16 5465.64 1233.01 5475.22 1239.01C5484.87 1245.02 5495.63 1248.02 5507.51 1248.02C5519.39 1248.02 5530.12 1245.02 5539.7 1239.01C5549.35 1233.01 5556.98 1224.16 5562.6 1212.47C5568.29 1200.78 5571.13 1186.44 5571.13 1169.45ZM5789.68 1071.34V1267.56H5766.69L5659.76 1113.5H5657.84V1267.56H5634.08V1071.34H5657.08L5764.39 1225.79H5766.3V1071.34H5789.68Z" fill="#393942"/>
<line x1="5903.52" y1="1158.57" x2="6503.11" y2="1158.57" stroke="#393942" stroke-width="20.9854"/>
</svg>
