<svg width="32769" height="6023" viewBox="0 0 32769 6023" fill="none" xmlns="http://www.w3.org/2000/svg">
<path d="M5733.71 3075.79C5761.96 4588.17 4913.56 5503.23 3676.74 5476.62C2462.42 5450.49 1671.43 4444.96 1671.43 3075.79H2914.01C2827.05 3755.55 3149.6 4232.02 3839.52 4232.02C4292.96 4232.02 4534.18 3964.01 4522.78 3075.79H5733.71Z" fill="#393942"/>
<ellipse cx="8638.64" cy="2742.05" rx="8638.64" ry="2742.05" transform="matrix(-0.378578 0.216003 -0.211641 -0.381033 7701.45 2190.56)" fill="#393942"/>
<path d="M1762.5 3345.03L1757.73 3074.99C3030.85 1951.58 3861.02 1292.93 5593.66 1090.67C5593.66 1090.67 5194.37 1225.41 5281.25 1226.27C5368.13 1227.13 5475.76 1226.23 5475.76 1226.23C3822.99 1954.11 3412.36 2665.98 1938.07 3449.25C1859.04 3491.24 1764.08 3434.52 1762.5 3345.03Z" fill="white"/>
<path d="M929.9 4503.27C678.922 4051.42 1772.69 2997.39 3350.09 2097.39C4766.25 1108.89 5911.92 932.008 6417.04 1079.07C6524.46 1110.35 6621.98 1184.41 6650.95 1293.47C6798.94 1850.68 5712.26 2930.82 4275.62 3750.51C2698.22 4650.52 1180.88 4955.13 929.9 4503.27Z" fill="white"/>
<path d="M3001.57 1208.04H1756.32V3659.52C1756.32 3950.07 1845.24 4252.73 2071.65 4525.12C2071.65 4525.12 2481.67 4420.34 2727.08 4342.89C2906.91 4286.14 3161.96 4185.46 3251.71 4149.53C3267.52 4143.2 3271.95 4122.95 3261 4109.9C3158.28 3987.56 3110.44 3837.68 3038.25 3659.52C2960.77 3468.32 3001.57 1208.04 3001.57 1208.04Z" fill="#059669"/>
<path d="M4545.82 1208.04V3439.64C4545.82 3439.64 4967.86 3189.58 5224.3 3008.32C5424.28 2866.97 5722.26 2627.01 5722.26 2627.01V1208.04H4545.82Z" fill="#059669"/>
<path d="M8215.54 1234.61V2589.06C8215.54 2802.49 8265.82 2960.5 8366.37 3063.11C8468.98 3165.72 8608.53 3217.03 8785.02 3217.03C8961.51 3217.03 9099 3166.75 9197.51 3066.19C9298.07 2963.58 9348.35 2804.54 9348.35 2589.06V1234.61H9563.83V2585.98C9563.83 2858.92 9490.97 3064.14 9345.27 3201.64C9201.61 3339.13 9013.84 3407.88 8781.94 3407.88C8550.04 3407.88 8361.24 3339.13 8215.54 3201.64C8071.88 3064.14 8000.06 2858.92 8000.06 2585.98V1234.61H8215.54ZM10256.8 2074.98C10310.2 1962.11 10394.3 1868.74 10509.3 1794.86C10626.2 1718.93 10764.8 1680.96 10924.8 1680.96C11076.7 1680.96 11213.2 1716.88 11334.2 1788.7C11457.4 1858.48 11552.8 1959.04 11620.5 2090.38C11690.3 2219.66 11725.2 2370.5 11725.2 2542.88C11725.2 2715.27 11690.3 2867.13 11620.5 2998.47C11552.8 3129.81 11457.4 3231.39 11334.2 3303.22C11213.2 3375.05 11076.7 3410.96 10924.8 3410.96C10766.8 3410.96 10629.3 3374.02 10512.3 3300.14C10395.4 3224.21 10310.2 3129.81 10256.8 3016.94V4180.53H10044.4V1705.59H10256.8V2074.98ZM11506.6 2542.88C11506.6 2403.33 11478.9 2283.28 11423.5 2182.72C11370.2 2080.11 11296.3 2002.13 11201.9 1948.77C11107.5 1895.42 11000.8 1868.74 10881.7 1868.74C10766.8 1868.74 10661.1 1896.44 10564.7 1951.85C10470.3 2007.26 10395.4 2086.27 10340 2188.88C10284.6 2291.49 10256.8 2410.52 10256.8 2545.96C10256.8 2681.41 10284.6 2800.43 10340 2903.04C10395.4 3005.65 10470.3 3084.66 10564.7 3140.07C10661.1 3195.48 10766.8 3223.18 10881.7 3223.18C11000.8 3223.18 11107.5 3196.51 11201.9 3143.15C11296.3 3087.74 11370.2 3008.73 11423.5 2906.12C11478.9 2801.46 11506.6 2680.38 11506.6 2542.88ZM12023.2 2542.88C12023.2 2370.5 12057 2219.66 12124.8 2090.38C12194.5 1959.04 12290 1858.48 12411 1788.7C12534.2 1716.88 12672.7 1680.96 12826.6 1680.96C12986.7 1680.96 13124.2 1717.9 13239.1 1791.78C13356.1 1865.66 13440.2 1960.06 13491.5 2074.98V1705.59H13707V3386.33H13491.5V3013.86C13438.2 3128.78 13353 3224.21 13236 3300.14C13121.1 3374.02 12983.6 3410.96 12823.5 3410.96C12671.7 3410.96 12534.2 3375.05 12411 3303.22C12290 3231.39 12194.5 3129.81 12124.8 2998.47C12057 2867.13 12023.2 2715.27 12023.2 2542.88ZM13491.5 2545.96C13491.5 2410.52 13463.8 2291.49 13408.4 2188.88C13353 2086.27 13277.1 2007.26 13180.6 1951.85C13086.2 1896.44 12981.6 1868.74 12866.6 1868.74C12747.6 1868.74 12640.9 1895.42 12546.5 1948.77C12452.1 2002.13 12377.2 2080.11 12321.8 2182.72C12268.4 2283.28 12241.7 2403.33 12241.7 2542.88C12241.7 2680.38 12268.4 2801.46 12321.8 2906.12C12377.2 3008.73 12452.1 3087.74 12546.5 3143.15C12640.9 3196.51 12747.6 3223.18 12866.6 3223.18C12981.6 3223.18 13086.2 3195.48 13180.6 3140.07C13277.1 3084.66 13353 3005.65 13408.4 2903.04C13463.8 2800.43 13491.5 2681.41 13491.5 2545.96ZM14100.4 2545.96C14100.4 2371.53 14135.3 2219.66 14205.1 2090.38C14274.9 1959.04 14371.3 1858.48 14494.4 1788.7C14617.6 1716.88 14758.2 1680.96 14916.2 1680.96C15123.4 1680.96 15293.8 1732.27 15427.2 1834.88C15562.6 1937.49 15649.8 2077.04 15688.8 2253.52H15457.9C15429.2 2132.45 15366.6 2038.04 15270.2 1970.32C15175.8 1900.55 15057.8 1865.66 14916.2 1865.66C14803.3 1865.66 14701.7 1891.31 14611.4 1942.62C14521.1 1993.92 14449.3 2070.88 14395.9 2173.49C14344.6 2274.05 14319 2398.2 14319 2545.96C14319 2693.72 14344.6 2818.9 14395.9 2921.51C14449.3 3024.12 14521.1 3101.08 14611.4 3152.38C14701.7 3203.69 14803.3 3229.34 14916.2 3229.34C15057.8 3229.34 15175.8 3195.48 15270.2 3127.76C15366.6 3057.98 15429.2 2961.53 15457.9 2838.4H15688.8C15649.8 3010.78 15562.6 3149.31 15427.2 3253.97C15291.7 3358.63 15121.4 3410.96 14916.2 3410.96C14758.2 3410.96 14617.6 3376.07 14494.4 3306.3C14371.3 3234.47 14274.9 3133.91 14205.1 3004.63C14135.3 2873.29 14100.4 2720.4 14100.4 2545.96ZM16887.1 1674.81C17014.4 1674.81 17128.3 1701.49 17228.8 1754.84C17331.4 1808.2 17411.5 1890.29 17468.9 2001.11C17528.4 2109.87 17558.2 2243.26 17558.2 2401.28V3386.33H17345.8V2425.91C17345.8 2243.26 17299.6 2103.71 17207.3 2007.26C17117 1910.81 16992.8 1862.58 16834.8 1862.58C16672.7 1862.58 16543.4 1913.89 16446.9 2016.5C16350.5 2119.11 16302.3 2269.94 16302.3 2469V3386.33H16086.8V1108.4H16302.3V1991.87C16355.6 1891.31 16433.6 1813.33 16536.2 1757.92C16640.9 1702.51 16757.9 1674.81 16887.1 1674.81ZM17936.3 2542.88C17936.3 2370.5 17970.1 2219.66 18037.8 2090.38C18107.6 1959.04 18203 1858.48 18324.1 1788.7C18447.3 1716.88 18585.8 1680.96 18739.7 1680.96C18899.8 1680.96 19037.3 1717.9 19152.2 1791.78C19269.2 1865.66 19353.3 1960.06 19404.6 2074.98V1705.59H19620.1V3386.33H19404.6V3013.86C19351.2 3128.78 19266.1 3224.21 19149.1 3300.14C19034.2 3374.02 18896.7 3410.96 18736.6 3410.96C18584.7 3410.96 18447.3 3375.05 18324.1 3303.22C18203 3231.39 18107.6 3129.81 18037.8 2998.47C17970.1 2867.13 17936.3 2715.27 17936.3 2542.88ZM19404.6 2545.96C19404.6 2410.52 19376.9 2291.49 19321.5 2188.88C19266.1 2086.27 19190.1 2007.26 19093.7 1951.85C18999.3 1896.44 18894.6 1868.74 18779.7 1868.74C18660.7 1868.74 18554 1895.42 18459.6 1948.77C18365.2 2002.13 18290.3 2080.11 18234.9 2182.72C18181.5 2283.28 18154.8 2403.33 18154.8 2542.88C18154.8 2680.38 18181.5 2801.46 18234.9 2906.12C18290.3 3008.73 18365.2 3087.74 18459.6 3143.15C18554 3196.51 18660.7 3223.18 18779.7 3223.18C18894.6 3223.18 18999.3 3195.48 19093.7 3140.07C19190.1 3084.66 19266.1 3005.65 19321.5 2903.04C19376.9 2800.43 19404.6 2681.41 19404.6 2545.96ZM20013.5 2542.88C20013.5 2370.5 20047.4 2219.66 20115.1 2090.38C20184.9 1959.04 20280.3 1858.48 20401.4 1788.7C20524.5 1716.88 20663 1680.96 20816.9 1680.96C20977 1680.96 21114.5 1717.9 21229.4 1791.78C21346.4 1865.66 21430.5 1960.06 21481.8 2074.98V1705.59H21697.3V3386.33H21481.8V3013.86C21428.5 3128.78 21343.3 3224.21 21226.3 3300.14C21111.4 3374.02 20973.9 3410.96 20813.9 3410.96C20662 3410.96 20524.5 3375.05 20401.4 3303.22C20280.3 3231.39 20184.9 3129.81 20115.1 2998.47C20047.4 2867.13 20013.5 2715.27 20013.5 2542.88ZM21481.8 2545.96C21481.8 2410.52 21454.1 2291.49 21398.7 2188.88C21343.3 2086.27 21267.4 2007.26 21170.9 1951.85C21076.5 1896.44 20971.9 1868.74 20856.9 1868.74C20737.9 1868.74 20631.2 1895.42 20536.8 1948.77C20442.4 2002.13 20367.5 2080.11 20312.1 2182.72C20258.7 2283.28 20232.1 2403.33 20232.1 2542.88C20232.1 2680.38 20258.7 2801.46 20312.1 2906.12C20367.5 3008.73 20442.4 3087.74 20536.8 3143.15C20631.2 3196.51 20737.9 3223.18 20856.9 3223.18C20971.9 3223.18 21076.5 3195.48 21170.9 3140.07C21267.4 3084.66 21343.3 3005.65 21398.7 2903.04C21454.1 2800.43 21481.8 2681.41 21481.8 2545.96ZM22404.7 2004.18C22451.9 1899.52 22523.8 1818.46 22620.2 1761C22718.7 1703.54 22838.8 1674.81 22980.4 1674.81V1899.52H22921.9C22765.9 1899.52 22640.7 1941.59 22546.3 2025.73C22451.9 2109.87 22404.7 2250.45 22404.7 2447.46V3386.33H22189.2V1705.59H22404.7V2004.18ZM24926.8 3386.33H24711.3L23520 1576.3V3386.33H23304.5V1234.61H23520L24711.3 3041.57V1234.61H24926.8V3386.33ZM26935.5 2459.77C26935.5 2533.65 26933.5 2590.08 26929.3 2629.08H25534.9C25541 2756.31 25571.8 2865.08 25627.2 2955.37C25682.6 3045.67 25755.5 3114.42 25845.8 3161.62C25936.1 3206.77 26034.6 3229.34 26141.3 3229.34C26280.9 3229.34 26397.8 3195.48 26492.2 3127.76C26588.7 3060.04 26652.3 2968.71 26683.1 2853.79H26910.9C26869.8 3017.97 26781.6 3152.38 26646.1 3257.05C26512.8 3359.66 26344.5 3410.96 26141.3 3410.96C25983.3 3410.96 25841.7 3376.07 25716.5 3306.3C25591.3 3234.47 25492.8 3133.91 25421 3004.63C25351.2 2873.29 25316.3 2720.4 25316.3 2545.96C25316.3 2371.53 25351.2 2218.64 25421 2087.3C25490.8 1955.96 25588.2 1855.4 25713.4 1785.63C25838.6 1715.85 25981.2 1680.96 26141.3 1680.96C26301.4 1680.96 26440.9 1715.85 26560 1785.63C26681 1855.4 26773.4 1949.8 26837 2068.83C26902.7 2185.8 26935.5 2316.12 26935.5 2459.77ZM26716.9 2453.61C26719 2328.43 26693.3 2221.72 26640 2133.47C26588.7 2045.23 26517.9 1978.53 26427.6 1933.38C26337.3 1888.23 26238.8 1865.66 26132.1 1865.66C25972 1865.66 25835.5 1916.97 25722.7 2019.58C25609.8 2122.18 25547.2 2266.86 25534.9 2453.61H26716.9ZM27542.1 2074.98C27595.5 1962.11 27679.6 1868.74 27794.6 1794.86C27911.5 1718.93 28050.1 1680.96 28210.1 1680.96C28362 1680.96 28498.5 1716.88 28619.5 1788.7C28742.7 1858.48 28838.1 1959.04 28905.8 2090.38C28975.6 2219.66 29010.5 2370.5 29010.5 2542.88C29010.5 2715.27 28975.6 2867.13 28905.8 2998.47C28838.1 3129.81 28742.7 3231.39 28619.5 3303.22C28498.5 3375.05 28362 3410.96 28210.1 3410.96C28052.1 3410.96 27914.6 3374.02 27797.6 3300.14C27680.7 3224.21 27595.5 3129.81 27542.1 3016.94V4180.53H27329.7V1705.59H27542.1V2074.98ZM28791.9 2542.88C28791.9 2403.33 28764.2 2283.28 28708.8 2182.72C28655.5 2080.11 28581.6 2002.13 28487.2 1948.77C28392.8 1895.42 28286.1 1868.74 28167 1868.74C28052.1 1868.74 27946.4 1896.44 27850 1951.85C27755.6 2007.26 27680.7 2086.27 27625.3 2188.88C27569.8 2291.49 27542.1 2410.52 27542.1 2545.96C27542.1 2681.41 27569.8 2800.43 27625.3 2903.04C27680.7 3005.65 27755.6 3084.66 27850 3140.07C27946.4 3195.48 28052.1 3223.18 28167 3223.18C28286.1 3223.18 28392.8 3196.51 28487.2 3143.15C28581.6 3087.74 28655.5 3008.73 28708.8 2906.12C28764.2 2801.46 28791.9 2680.38 28791.9 2542.88ZM29308.5 2542.88C29308.5 2370.5 29342.3 2219.66 29410.1 2090.38C29479.8 1959.04 29575.3 1858.48 29696.3 1788.7C29819.5 1716.88 29958 1680.96 30111.9 1680.96C30272 1680.96 30409.5 1717.9 30524.4 1791.78C30641.4 1865.66 30725.5 1960.06 30776.8 2074.98V1705.59H30992.3V3386.33H30776.8V3013.86C30723.5 3128.78 30638.3 3224.21 30521.3 3300.14C30406.4 3374.02 30268.9 3410.96 30108.8 3410.96C29957 3410.96 29819.5 3375.05 29696.3 3303.22C29575.3 3231.39 29479.8 3129.81 29410.1 2998.47C29342.3 2867.13 29308.5 2715.27 29308.5 2542.88ZM30776.8 2545.96C30776.8 2410.52 30749.1 2291.49 30693.7 2188.88C30638.3 2086.27 30562.4 2007.26 30465.9 1951.85C30371.5 1896.44 30266.9 1868.74 30151.9 1868.74C30032.9 1868.74 29926.2 1895.42 29831.8 1948.77C29737.4 2002.13 29662.5 2080.11 29607.1 2182.72C29553.7 2283.28 29527 2403.33 29527 2542.88C29527 2680.38 29553.7 2801.46 29607.1 2906.12C29662.5 3008.73 29737.4 3087.74 29831.8 3143.15C29926.2 3196.51 30032.9 3223.18 30151.9 3223.18C30266.9 3223.18 30371.5 3195.48 30465.9 3140.07C30562.4 3084.66 30638.3 3005.65 30693.7 2903.04C30749.1 2800.43 30776.8 2681.41 30776.8 2545.96ZM31699.7 1108.4V3386.33H31484.2V1108.4H31699.7Z" fill="#393942"/>
<line x1="9742.46" y1="5040.99" x2="12780.9" y2="5040.99" stroke="#393942" stroke-width="243.991"/>
<path d="M13357.3 5591.27V4596.86H13477.8V5039.68H14008V4596.86H14128.4V5591.27H14008V5146.5H13477.8V5591.27H13357.3ZM14369.5 5591.27V4596.86H14969.6V4703.68H14489.9V5039.68H14938.5V5146.5H14489.9V5484.45H14977.4V5591.27H14369.5ZM15227.4 5591.27H15101.2L15466.3 4596.86H15590.6L15955.8 5591.27H15829.5L15532.4 4754.18H15524.6L15227.4 5591.27ZM15274.1 5202.83H15782.9V5309.65H15274.1V5202.83ZM16110.7 5591.27V4596.86H16231.1V5484.45H16693.3V5591.27H16110.7ZM17000.2 4596.86V5591.27H16879.8V4596.86H17000.2ZM18030.2 4596.86V5591.27H17913.6L17371.8 4810.5H17362.1V5591.27H17241.6V4596.86H17358.2L17902 5379.57H17911.7V4596.86H18030.2ZM18950.9 4907.61C18940.2 4874.92 18926.2 4845.62 18908.7 4819.73C18891.5 4793.51 18871 4771.17 18847 4752.72C18823.4 4734.27 18796.5 4720.19 18766.4 4710.48C18736.3 4700.76 18703.3 4695.91 18667.4 4695.91C18608.4 4695.91 18554.9 4711.12 18506.6 4741.55C18458.4 4771.98 18420 4816.81 18391.6 4876.05C18363.1 4935.29 18348.8 5007.96 18348.8 5094.06C18348.8 5180.17 18363.2 5252.84 18392 5312.08C18420.9 5371.31 18459.9 5416.15 18509.1 5446.58C18558.3 5477 18613.6 5492.22 18675.1 5492.22C18732.1 5492.22 18782.3 5480.08 18825.6 5455.8C18869.3 5431.2 18903.3 5396.56 18927.6 5351.89C18952.2 5306.9 18964.5 5253.97 18964.5 5193.12L19001.4 5200.88H18702.3V5094.06H19081V5200.88C19081 5282.78 19063.6 5354 19028.6 5414.53C18994 5475.06 18946.1 5522 18884.9 5555.34C18824 5588.36 18754.1 5604.87 18675.1 5604.87C18587.1 5604.87 18509.7 5584.15 18443 5542.71C18376.7 5501.28 18324.9 5442.37 18287.6 5365.97C18250.7 5289.58 18232.3 5198.94 18232.3 5094.06C18232.3 5015.4 18242.8 4944.67 18263.9 4881.88C18285.2 4818.75 18315.3 4765.02 18354.2 4720.67C18393 4676.32 18439 4642.34 18492.1 4618.71C18545.2 4595.08 18603.6 4583.26 18667.4 4583.26C18719.8 4583.26 18768.7 4591.19 18814 4607.05C18859.6 4622.59 18900.3 4644.76 18935.9 4673.57C18971.8 4702.06 19001.7 4736.21 19025.7 4776.03C19049.6 4815.52 19066.2 4859.38 19075.2 4907.61H18950.9ZM19617.5 4703.68V4596.86H20363.3V4703.68H20050.6V5591.27H19930.2V4703.68H19617.5ZM20549.1 5591.27V4596.86H20669.5V5039.68H21199.8V4596.86H21320.2V5591.27H21199.8V5146.5H20669.5V5591.27H20549.1ZM21561.3 5591.27V4596.86H22161.4V4703.68H21681.7V5039.68H22130.3V5146.5H21681.7V5484.45H22169.2V5591.27H21561.3ZM23551.5 4596.86V5591.27H23435L22893.1 4810.5H22883.4V5591.27H22763V4596.86H22879.5L23423.3 5379.57H23433.1V4596.86H23551.5ZM23833.3 5591.27H23707L24072.2 4596.86H24196.5L24561.6 5591.27H24435.4L24138.2 4754.18H24130.4L23833.3 5591.27ZM23879.9 5202.83H24388.8V5309.65H23879.9V5202.83ZM24546 4703.68V4596.86H25291.8V4703.68H24979.1V5591.27H24858.6V4703.68H24546ZM25598 4596.86V5591.27H25477.6V4596.86H25598ZM26678.5 5094.06C26678.5 5198.94 26659.6 5289.58 26621.7 5365.97C26583.8 5442.37 26531.9 5501.28 26465.8 5542.71C26399.8 5584.15 26324.4 5604.87 26239.6 5604.87C26154.8 5604.87 26079.3 5584.15 26013.3 5542.71C25947.3 5501.28 25895.3 5442.37 25857.4 5365.97C25819.6 5289.58 25800.6 5198.94 25800.6 5094.06C25800.6 4989.18 25819.6 4898.55 25857.4 4822.15C25895.3 4745.76 25947.3 4686.85 26013.3 4645.41C26079.3 4603.98 26154.8 4583.26 26239.6 4583.26C26324.4 4583.26 26399.8 4603.98 26465.8 4645.41C26531.9 4686.85 26583.8 4745.76 26621.7 4822.15C26659.6 4898.55 26678.5 4989.18 26678.5 5094.06ZM26562 5094.06C26562 5007.96 26547.6 4935.29 26518.8 4876.05C26490.3 4816.81 26451.6 4771.98 26402.7 4741.55C26354.2 4711.12 26299.8 4695.91 26239.6 4695.91C26179.4 4695.91 26124.8 4711.12 26075.9 4741.55C26027.4 4771.98 25988.7 4816.81 25959.9 4876.05C25931.4 4935.29 25917.2 5007.96 25917.2 5094.06C25917.2 5180.17 25931.4 5252.84 25959.9 5312.08C25988.7 5371.31 26027.4 5416.15 26075.9 5446.58C26124.8 5477 26179.4 5492.22 26239.6 5492.22C26299.8 5492.22 26354.2 5477 26402.7 5446.58C26451.6 5416.15 26490.3 5371.31 26518.8 5312.08C26547.6 5252.84 26562 5180.17 26562 5094.06ZM27669.5 4596.86V5591.27H27553L27011.1 4810.5H27001.4V5591.27H26881V4596.86H26997.5L27541.3 5379.57H27551V4596.86H27669.5Z" fill="#393942"/>
<line x1="28246" y1="5040.99" x2="31284.5" y2="5040.99" stroke="#393942" stroke-width="243.991"/>
</svg>
